<svg xmlns="http://www.w3.org/2000/svg" viewBox="0 0 24 24"><path d="M8 9Q7.58 9 7.29 8.71Q7 8.42 7 8Q7 7.57 7.29 7.29Q7.58 7 8 7H20Q20.43 7 20.71 7.29Q21 7.57 21 8Q21 8.42 20.71 8.71Q20.43 9 20 9ZM8 13Q7.58 13 7.29 12.71Q7 12.42 7 12Q7 11.57 7.29 11.29Q7.58 11 8 11H20Q20.43 11 20.71 11.29Q21 11.57 21 12Q21 12.42 20.71 12.71Q20.43 13 20 13ZM8 17Q7.58 17 7.29 16.71Q7 16.43 7 16Q7 15.57 7.29 15.29Q7.58 15 8 15H20Q20.43 15 20.71 15.29Q21 15.57 21 16Q21 16.43 20.71 16.71Q20.43 17 20 17ZM4 9Q3.58 9 3.29 8.71Q3 8.42 3 8Q3 7.57 3.29 7.29Q3.58 7 4 7Q4.42 7 4.71 7.29Q5 7.57 5 8Q5 8.42 4.71 8.71Q4.42 9 4 9ZM4 13Q3.58 13 3.29 12.71Q3 12.42 3 12Q3 11.57 3.29 11.29Q3.58 11 4 11Q4.42 11 4.71 11.29Q5 11.57 5 12Q5 12.42 4.71 12.71Q4.42 13 4 13ZM4 17Q3.58 17 3.29 16.71Q3 16.43 3 16Q3 15.57 3.29 15.29Q3.58 15 4 15Q4.42 15 4.71 15.29Q5 15.57 5 16Q5 16.43 4.71 16.71Q4.42 17 4 17Z"/></svg>